<?xml version="1.0" standalone="no"?>
<!DOCTYPE svg PUBLIC "-//W3C//DTD SVG 20010904//EN"
 "http://www.w3.org/TR/2001/REC-SVG-20010904/DTD/svg10.dtd">
<svg version="1.0" xmlns="http://www.w3.org/2000/svg"
 width="500.000000pt" height="500.000000pt" viewBox="0 0 500.000000 500.000000"
 preserveAspectRatio="xMidYMid meet">
<metadata>
Created by potrace 1.14, written by Peter Selinger 2001-2017
</metadata>
<g transform="translate(0.000000,500.000000) scale(0.100000,-0.100000)"
fill="#000000" stroke="none">
<path d="M2367 4944 c-1 -1 -36 -5 -77 -8 -446 -34 -895 -208 -1273 -492 -115
-87 -348 -315 -422 -414 -27 -36 -52 -67 -55 -70 -4 -3 -37 -52 -76 -110 -84
-126 -207 -371 -253 -500 -18 -52 -37 -104 -41 -115 -22 -55 -72 -276 -86
-375 -4 -30 -9 -64 -11 -75 -9 -48 -11 -466 -3 -530 22 -174 25 -193 61 -336
50 -205 100 -338 199 -535 50 -98 188 -319 222 -356 7 -7 29 -34 48 -58 61
-79 207 -232 299 -313 188 -165 463 -332 704 -426 91 -35 274 -94 331 -106
264 -55 350 -63 606 -60 148 1 246 8 315 19 55 10 111 19 125 21 14 2 52 11
85 20 33 9 67 18 75 20 54 13 191 59 280 94 341 136 668 369 931 666 172 194
348 495 443 759 42 115 98 313 110 391 14 93 18 118 23 143 13 70 12 521 -2
612 -20 138 -23 154 -51 269 -113 475 -368 902 -744 1245 -68 61 -265 212
-316 240 -16 9 -45 26 -64 38 -86 51 -224 120 -325 161 -224 92 -444 146 -699
173 -51 5 -355 12 -359 8z"/>
</g>
</svg>
